<svg width="78" height="70" viewBox="0 0 78 70" fill="none" xmlns="http://www.w3.org/2000/svg">
<path d="M36.3219 1.083C34.7619 1.69055 4.23793 20.4189 3.30193 21.3434C2.07993 22.5321 1.19593 24.2226 0.805928 26.0981C0.415928 28.0528 0.415928 63.4755 0.805928 65.1396C0.987928 65.8792 1.53393 66.8038 2.26193 67.6226C4.00393 69.6038 4.91393 69.7887 11.9079 69.683C17.4459 69.6038 17.5759 69.5773 18.8759 68.8906C20.2539 68.1509 21.5019 66.883 22.2819 65.4302C22.6979 64.6641 22.7499 63.2906 22.8799 49.6604C23.0099 35.3962 23.0359 34.683 23.5299 33.6792C24.3359 32.0151 25.5059 31.4075 27.5599 31.4868L29.2499 31.566V40.4679V49.3434L28.6259 50.0302C28.1319 50.5585 27.7419 50.717 26.8579 50.717H25.7399V54.3887C25.7399 56.8981 25.8439 58.1132 26.0259 58.166C26.7799 58.4302 30.0819 57.8226 31.3559 57.1887C33.1239 56.317 35.1519 54.0453 35.9319 52.0906C36.5299 50.5849 36.5299 50.5321 36.5299 38.5132C36.5299 26.7585 36.5299 26.4415 35.9839 25.7283C34.7099 23.9849 34.4499 23.9056 29.5619 23.9056C24.7519 23.9056 23.5299 24.1434 21.1639 25.5434C19.0319 26.7849 17.0299 29.4792 16.0939 32.3585C15.8339 33.1509 15.7299 36.9547 15.6259 47.6792L15.4699 61.9434L11.6219 62.0226L7.77393 62.1019L7.85193 44.9849C7.92993 28.9245 7.95593 27.8151 8.39793 27.0755C8.76193 26.4943 12.5839 24.0377 23.3999 17.4868C36.7119 9.40376 37.9859 8.71697 38.5319 9.00753C41.7559 10.6981 66.9239 26.3358 67.4439 26.9434C67.8079 27.3924 68.1719 28.1321 68.2499 28.6075C68.3279 29.083 68.3539 36.8226 68.3279 45.8302L68.2499 62.2075L65.7279 62.1547L63.1799 62.1019V63.766C63.1799 65.9585 62.6079 67.7547 61.5939 68.8377L60.7359 69.7358H65.0259C70.4859 69.7358 71.5519 69.4453 73.4759 67.4906C75.7639 65.166 75.6859 66.0906 75.6079 44.7472L75.5299 26.283L74.6979 24.4868C74.2039 23.4302 73.3459 22.1887 72.5919 21.449C71.7339 20.6038 66.4039 17.1962 55.5879 10.6189C40.9499 1.69055 39.7539 1.03017 38.4539 0.924515C37.6739 0.845268 36.7119 0.924515 36.3219 1.083Z" fill="white"/>
<path d="M43.004 24.0641C41.6 24.249 40.898 24.7773 40.3 26.0453C39.806 27.0754 39.78 27.7358 39.78 44.6679C39.78 63.7924 39.806 64.083 41.262 66.3283C42.198 67.7547 43.81 68.8641 45.786 69.366C47.944 69.9207 55.822 69.7886 57.2 69.1547C58.266 68.6792 59.41 67.5698 60.008 66.4339C60.684 65.2188 60.814 52.7509 60.19 51.3773C59.358 49.6339 58.604 49.3962 53.846 49.3962H49.66V51.7736C49.66 55.3924 50.466 56.7924 52.598 56.7924H53.586L53.508 59.3547L53.43 61.9434L50.388 62.0226C47.398 62.1019 47.32 62.0754 47.19 61.4943C47.112 61.1509 47.086 54.283 47.112 46.2264L47.19 31.566L49.27 31.4868C50.414 31.4339 51.61 31.4868 51.948 31.566C52.962 31.8302 53.3 33.1245 53.3 36.9019C53.3 39.7811 53.378 40.4151 53.82 41.1283C54.6 42.449 55.536 42.7924 58.24 42.7924H60.632L60.528 37.0339L60.45 31.3019L59.618 29.532C58.63 27.3924 57.096 25.7811 55.146 24.883C53.768 24.2226 53.404 24.1698 48.854 24.0377C46.202 23.9585 43.576 23.9849 43.004 24.0641Z" fill="white"/>
</svg>
